<svg version="1.0" id="Layer_1" xmlns="http://www.w3.org/2000/svg" x="0px" y="0px"
	 width="100px" height="100px" viewBox="0 0 100 100" enable-background="new 0 0 100 100" xml:space="preserve">
<path d="M40,21.797c-3.174,1.13-6.133,2.712-8.711,4.778l-7.217-7.217l-4.714,4.714l7.217,7.217
	c-3.45,4.313-5.738,9.593-6.38,15.378H10v6.666h10.195c0.642,5.785,2.93,11.064,6.38,15.378l-7.217,7.217l4.714,4.714l7.217-7.217
	c2.578,2.066,5.537,3.648,8.711,4.775V21.797z"/>
<path d="M90,53.333v-6.666H79.805c-0.642-5.785-2.927-11.064-6.377-15.381l7.214-7.214l-4.714-4.714l-7.214,7.214
	c-4.316-3.45-9.596-5.735-15.381-6.377V10h-6.666v10.195v59.609V90h6.666V79.805c5.785-0.642,11.064-2.927,15.381-6.377l7.214,7.214
	l4.714-4.714l-7.214-7.214c3.45-4.316,5.735-9.596,6.377-15.381H90z"/>
</svg>
